M48
; DRILL file {KiCad (6.0.2)} date Fri Feb 10 00:02:29 2023
; FORMAT={-:-/ absolute / metric / decimal}
; #@! TF.CreationDate,2023-02-10T00:02:29+03:00
; #@! TF.GenerationSoftware,Kicad,Pcbnew,(6.0.2)
; #@! TF.FileFunction,Plated,1,2,PTH
FMAT,2
METRIC
; #@! TA.AperFunction,Plated,PTH,ViaDrill
T1C0.400
; #@! TA.AperFunction,Plated,PTH,ComponentDrill
T2C0.700
; #@! TA.AperFunction,Plated,PTH,ComponentDrill
T3C0.762
; #@! TA.AperFunction,Plated,PTH,ComponentDrill
T4C0.800
; #@! TA.AperFunction,Plated,PTH,ComponentDrill
T5C1.000
; #@! TA.AperFunction,Plated,PTH,ComponentDrill
T6C1.100
%
G90
G05
T1
X80.35Y-46.95
X80.533Y-32.03
X80.615Y-40.931
X80.7Y-56.8
X81.55Y-61.8
X82.55Y-26.9
X83.25Y-50.25
X84.15Y-61.4
X84.739Y-43.87
X85.433Y-25.661
X85.45Y-27.2
X85.65Y-38.35
X85.75Y-50.1
X85.85Y-33.35
X88.25Y-33.5
X88.5Y-47.4
X90.55Y-59.6
X91.85Y-61.2
X92.0Y-32.15
X93.05Y-29.7
X93.726Y-41.698
X93.849Y-32.138
X95.845Y-32.089
X95.95Y-55.8
X96.2Y-38.95
X96.291Y-50.231
X97.05Y-43.25
X97.5Y-38.95
X97.9Y-32.45
X98.15Y-58.75
X98.2Y-27.8
X98.2Y-30.45
X98.4Y-55.65
X98.6Y-50.3
X98.9Y-62.05
X100.0Y-27.3
X100.998Y-39.74
X101.85Y-31.6
X102.829Y-43.325
X103.3Y-50.4
X103.6Y-27.65
X105.4Y-31.55
X106.05Y-50.45
X106.236Y-41.342
X106.65Y-61.7
X107.85Y-27.55
X108.55Y-50.2
X108.7Y-38.95
X109.45Y-61.6
X110.95Y-43.45
X111.1Y-27.9
X111.2Y-55.6
X111.25Y-39.0
X111.25Y-50.25
X111.3Y-33.45
X112.35Y-61.45
X113.85Y-33.35
X114.2Y-40.75
X114.25Y-27.7
X116.3Y-33.35
X117.3Y-56.9
X117.45Y-31.1
X118.4Y-41.7
X118.55Y-61.25
X118.75Y-33.5
X118.85Y-55.8
X119.1Y-28.25
X119.35Y-45.3
X119.4Y-42.75
X119.5Y-47.2
X120.55Y-44.7
X120.65Y-47.25
X120.9Y-31.05
X121.0Y-62.15
X121.4Y-33.55
X121.5Y-38.8
X121.5Y-56.0
X123.8Y-33.5
X123.9Y-38.5
X123.95Y-51.3
X126.45Y-38.45
X126.8Y-48.374
X126.85Y-41.95
X126.85Y-45.85
X127.8Y-57.5
X128.2Y-30.85
X128.95Y-50.3
X129.15Y-57.05
X129.199Y-46.78
X129.344Y-41.694
X129.35Y-39.05
X129.6Y-48.05
X129.85Y-34.8
X130.05Y-27.6
X130.05Y-37.35
X130.45Y-49.5
X130.6Y-53.65
X130.7Y-38.7
X130.75Y-41.75
X130.8Y-46.4
X131.05Y-58.55
X131.2Y-62.05
X131.4Y-34.8
X131.4Y-50.75
X131.45Y-37.45
X131.55Y-48.0
X133.85Y-62.2
X134.05Y-58.9
X134.25Y-27.4
X135.6Y-53.85
X136.25Y-29.05
X136.35Y-59.05
X137.785Y-37.153
X137.85Y-62.1
X137.889Y-52.241
X137.9Y-34.85
X138.0Y-57.65
X138.371Y-27.513
X138.85Y-59.75
X139.95Y-53.05
X140.7Y-28.7
X141.7Y-57.7
X141.7Y-62.15
X142.15Y-36.5
X142.15Y-38.15
X142.186Y-34.666
X143.0Y-60.05
X143.05Y-53.1
X143.8Y-25.5
X144.9Y-52.55
X145.45Y-26.9
X145.5Y-57.7
X145.55Y-62.15
X146.55Y-37.55
X146.584Y-33.489
X146.85Y-25.4
X148.85Y-43.6
X149.9Y-57.8
X149.95Y-36.15
X150.05Y-34.05
X150.55Y-26.9
X152.1Y-26.95
X152.75Y-28.95
X152.95Y-49.6
X153.75Y-30.424
X153.85Y-26.4
X153.9Y-38.6
X154.038Y-61.595
X155.05Y-28.15
X155.15Y-30.75
X155.7Y-26.35
X155.701Y-53.5
X155.989Y-27.806
X156.15Y-37.75
X156.5Y-61.35
X156.65Y-39.4
X156.821Y-56.553
X156.85Y-30.55
X156.85Y-57.6
X157.1Y-58.5
X157.1Y-54.145
X157.2Y-26.75
X157.308Y-47.833
X157.4Y-27.75
X157.4Y-38.3
X157.65Y-40.65
X158.15Y-44.15
X158.393Y-61.926
X158.4Y-51.1
X158.4Y-52.5
X158.6Y-26.15
X158.8Y-33.15
X158.8Y-34.95
X159.1Y-57.4
X159.5Y-39.35
X159.65Y-51.9
X159.95Y-26.45
X160.1Y-34.0
X161.0Y-51.1
X161.025Y-44.0
X161.025Y-45.1
X161.05Y-52.45
X161.2Y-33.15
X161.25Y-35.05
X162.55Y-34.15
X162.65Y-51.9
X162.7Y-25.25
X163.5Y-44.0
X163.6Y-35.05
X163.65Y-25.65
X163.65Y-58.35
X163.7Y-33.1
X163.8Y-52.55
X163.9Y-51.1
X164.05Y-28.45
X164.1Y-41.2
X164.25Y-44.75
X164.5Y-34.05
X164.813Y-47.349
X164.853Y-56.536
X165.1Y-26.4
X165.1Y-51.65
X165.35Y-33.1
X165.35Y-34.9
X165.75Y-47.85
X166.15Y-25.2
X166.15Y-45.45
X166.25Y-56.2
X166.4Y-41.2
X166.4Y-61.8
X166.491Y-59.226
X166.55Y-52.15
X166.65Y-40.05
X166.7Y-28.3
X166.7Y-50.9
X166.85Y-26.65
X166.95Y-30.6
X166.95Y-46.65
X166.95Y-53.55
X168.65Y-25.15
X168.65Y-33.093
X168.8Y-39.7
X169.22Y-51.055
X169.4Y-55.1
X169.75Y-42.0
X169.9Y-38.45
X169.9Y-45.6
X170.75Y-33.45
X170.8Y-35.7
X171.1Y-43.55
X171.172Y-53.559
X171.2Y-49.25
X171.3Y-25.7
T2
X158.66Y-42.875
X159.93Y-42.875
X161.2Y-42.875
X162.47Y-42.875
X163.74Y-42.875
X165.01Y-42.875
X166.28Y-42.875
X167.55Y-42.875
T3
X132.6Y-31.0
X132.6Y-36.08
X132.6Y-38.62
X132.66Y-52.39
X132.66Y-57.47
X132.66Y-60.01
X132.7Y-41.7
X132.7Y-46.78
X132.7Y-49.32
X150.38Y-31.0
X150.38Y-38.62
X150.44Y-52.39
X150.44Y-60.01
X150.48Y-41.7
X150.48Y-49.32
T4
X158.9Y-27.7
X161.4Y-27.7
X162.0Y-58.2
X162.0Y-60.7
T5
X79.445Y-35.725
X79.445Y-53.505
X81.985Y-35.725
X81.985Y-53.505
X84.525Y-35.725
X84.525Y-53.505
X84.96Y-57.6
X87.065Y-35.725
X87.065Y-53.505
X87.1Y-61.3
X87.5Y-57.6
X88.01Y-26.45
X89.605Y-35.725
X89.605Y-53.505
X89.64Y-61.3
X90.04Y-57.6
X90.55Y-26.45
X92.145Y-35.725
X92.145Y-53.505
X92.58Y-57.6
X94.15Y-61.3
X94.685Y-35.725
X94.685Y-53.505
X95.475Y-26.93
X95.475Y-29.47
X96.69Y-61.3
X97.225Y-35.725
X97.225Y-53.505
X99.765Y-35.725
X99.765Y-53.505
X100.56Y-59.65
X100.7Y-29.525
X102.305Y-35.725
X102.305Y-53.505
X103.1Y-59.65
X103.24Y-29.525
X104.845Y-35.725
X104.845Y-53.505
X105.64Y-59.65
X107.22Y-29.5
X107.385Y-35.725
X107.385Y-53.505
X108.18Y-59.65
X109.76Y-29.5
X109.925Y-35.725
X109.925Y-53.505
X112.02Y-59.6
X112.3Y-29.5
X112.465Y-35.725
X112.465Y-53.505
X114.56Y-59.6
X114.84Y-29.5
X115.005Y-35.725
X115.005Y-53.505
X117.1Y-59.6
X117.38Y-29.5
X117.545Y-35.725
X117.545Y-53.505
X119.64Y-59.6
X120.085Y-35.725
X120.085Y-53.505
X122.625Y-35.725
X122.625Y-53.505
X125.165Y-35.725
X125.165Y-53.505
X127.705Y-35.725
X127.705Y-53.505
X155.075Y-55.15
X155.075Y-57.69
X155.55Y-41.8
X155.55Y-44.34
X155.575Y-33.05
X155.575Y-35.59
T6
X85.71Y-29.9
X88.25Y-29.9
X90.79Y-29.9
T0
M30
