%TF.GenerationSoftware,KiCad,Pcbnew,(6.0.2)*%
%TF.CreationDate,2023-02-10T00:02:38+03:00*%
%TF.ProjectId,Pistol_Camera_Driver,50697374-6f6c-45f4-9361-6d6572615f44,rev?*%
%TF.SameCoordinates,Original*%
%TF.FileFunction,Paste,Bot*%
%TF.FilePolarity,Positive*%
%FSLAX46Y46*%
G04 Gerber Fmt 4.6, Leading zero omitted, Abs format (unit mm)*
G04 Created by KiCad (PCBNEW (6.0.2)) date 2023-02-10 00:02:38*
%MOMM*%
%LPD*%
G01*
G04 APERTURE LIST*
G04 Aperture macros list*
%AMRoundRect*
0 Rectangle with rounded corners*
0 $1 Rounding radius*
0 $2 $3 $4 $5 $6 $7 $8 $9 X,Y pos of 4 corners*
0 Add a 4 corners polygon primitive as box body*
4,1,4,$2,$3,$4,$5,$6,$7,$8,$9,$2,$3,0*
0 Add four circle primitives for the rounded corners*
1,1,$1+$1,$2,$3*
1,1,$1+$1,$4,$5*
1,1,$1+$1,$6,$7*
1,1,$1+$1,$8,$9*
0 Add four rect primitives between the rounded corners*
20,1,$1+$1,$2,$3,$4,$5,0*
20,1,$1+$1,$4,$5,$6,$7,0*
20,1,$1+$1,$6,$7,$8,$9,0*
20,1,$1+$1,$8,$9,$2,$3,0*%
G04 Aperture macros list end*
%ADD10RoundRect,0.237500X-0.300000X-0.237500X0.300000X-0.237500X0.300000X0.237500X-0.300000X0.237500X0*%
%ADD11RoundRect,0.237500X-0.250000X-0.237500X0.250000X-0.237500X0.250000X0.237500X-0.250000X0.237500X0*%
%ADD12RoundRect,0.237500X0.250000X0.237500X-0.250000X0.237500X-0.250000X-0.237500X0.250000X-0.237500X0*%
%ADD13RoundRect,0.237500X-0.237500X0.250000X-0.237500X-0.250000X0.237500X-0.250000X0.237500X0.250000X0*%
%ADD14RoundRect,0.237500X0.237500X-0.250000X0.237500X0.250000X-0.237500X0.250000X-0.237500X-0.250000X0*%
%ADD15RoundRect,0.237500X0.300000X0.237500X-0.300000X0.237500X-0.300000X-0.237500X0.300000X-0.237500X0*%
%ADD16R,5.250000X4.550000*%
%ADD17R,1.100000X4.600000*%
%ADD18R,1.560000X0.650000*%
%ADD19RoundRect,0.237500X-0.237500X0.300000X-0.237500X-0.300000X0.237500X-0.300000X0.237500X0.300000X0*%
%ADD20R,0.300000X1.550000*%
%ADD21R,7.800000X3.400000*%
%ADD22RoundRect,0.237500X0.237500X-0.300000X0.237500X0.300000X-0.237500X0.300000X-0.237500X-0.300000X0*%
G04 APERTURE END LIST*
D10*
%TO.C,C12*%
X163750000Y-29350000D03*
X165475000Y-29350000D03*
%TD*%
D11*
%TO.C,R6*%
X140337500Y-32850000D03*
X142162500Y-32850000D03*
%TD*%
D12*
%TO.C,R7*%
X164550000Y-45850000D03*
X162725000Y-45850000D03*
%TD*%
D13*
%TO.C,R10*%
X168700000Y-34937500D03*
X168700000Y-36762500D03*
%TD*%
D14*
%TO.C,R15*%
X133250000Y-45250000D03*
X133250000Y-43425000D03*
%TD*%
D15*
%TO.C,C7*%
X163412500Y-56450000D03*
X161687500Y-56450000D03*
%TD*%
D16*
%TO.C,U2*%
X139375000Y-47775000D03*
X139375000Y-42925000D03*
X144925000Y-42925000D03*
X144925000Y-47775000D03*
D17*
X139610000Y-36200000D03*
X144690000Y-36200000D03*
%TD*%
D11*
%TO.C,R14*%
X134500000Y-57550000D03*
X136325000Y-57550000D03*
%TD*%
%TO.C,R3*%
X136937500Y-32850000D03*
X138762500Y-32850000D03*
%TD*%
D12*
%TO.C,R9*%
X168712500Y-38400000D03*
X166887500Y-38400000D03*
%TD*%
D14*
%TO.C,R1*%
X156450000Y-50362500D03*
X156450000Y-48537500D03*
%TD*%
%TO.C,R4*%
X154800000Y-50362500D03*
X154800000Y-48537500D03*
%TD*%
D10*
%TO.C,C3*%
X85100000Y-32180000D03*
X86825000Y-32180000D03*
%TD*%
D11*
%TO.C,R2*%
X154700000Y-46950000D03*
X156525000Y-46950000D03*
%TD*%
D10*
%TO.C,C5*%
X158387500Y-58400000D03*
X160112500Y-58400000D03*
%TD*%
%TO.C,C11*%
X160387500Y-29250000D03*
X162112500Y-29250000D03*
%TD*%
D11*
%TO.C,R12*%
X159000000Y-40550000D03*
X160825000Y-40550000D03*
%TD*%
%TO.C,R8*%
X154350000Y-52350000D03*
X156175000Y-52350000D03*
%TD*%
%TO.C,R5*%
X158137500Y-45550000D03*
X159962500Y-45550000D03*
%TD*%
D13*
%TO.C,R9*%
X167100000Y-34925000D03*
X167100000Y-36750000D03*
%TD*%
D18*
%TO.C,U8*%
X122200000Y-41850000D03*
X122200000Y-40900000D03*
X122200000Y-39950000D03*
X124900000Y-39950000D03*
X124900000Y-40900000D03*
X124900000Y-41850000D03*
%TD*%
D15*
%TO.C,C2*%
X90312500Y-32230000D03*
X88587500Y-32230000D03*
%TD*%
D10*
%TO.C,C10*%
X163187500Y-27450000D03*
X164912500Y-27450000D03*
%TD*%
D19*
%TO.C,C6*%
X141550000Y-51325000D03*
X141550000Y-53050000D03*
%TD*%
D18*
%TO.C,U6*%
X122200000Y-49550000D03*
X122200000Y-48600000D03*
X122200000Y-47650000D03*
X124900000Y-47650000D03*
X124900000Y-48600000D03*
X124900000Y-49550000D03*
%TD*%
D12*
%TO.C,R11*%
X165312500Y-39750000D03*
X163487500Y-39750000D03*
%TD*%
D20*
%TO.C,U4*%
X158025000Y-48700000D03*
X158675000Y-48700000D03*
X159325000Y-48700000D03*
X159975000Y-48700000D03*
X160625000Y-48700000D03*
X161275000Y-48700000D03*
X161925000Y-48700000D03*
X162575000Y-48700000D03*
X163225000Y-48700000D03*
X163875000Y-48700000D03*
X164525000Y-48700000D03*
X165175000Y-48700000D03*
X165175000Y-54300000D03*
X164525000Y-54300000D03*
X163875000Y-54300000D03*
X163225000Y-54300000D03*
X162575000Y-54300000D03*
X161925000Y-54300000D03*
X161275000Y-54300000D03*
X160625000Y-54300000D03*
X159975000Y-54300000D03*
X159325000Y-54300000D03*
X158675000Y-54300000D03*
X158025000Y-54300000D03*
D21*
X161600000Y-51500000D03*
%TD*%
D18*
%TO.C,U10*%
X122200000Y-45700000D03*
X122200000Y-44750000D03*
X122200000Y-43800000D03*
X124900000Y-43800000D03*
X124900000Y-44750000D03*
X124900000Y-45700000D03*
%TD*%
D20*
%TO.C,U5*%
X165475000Y-36900000D03*
X164825000Y-36900000D03*
X164175000Y-36900000D03*
X163525000Y-36900000D03*
X162875000Y-36900000D03*
X162225000Y-36900000D03*
X161575000Y-36900000D03*
X160925000Y-36900000D03*
X160275000Y-36900000D03*
X159625000Y-36900000D03*
X158975000Y-36900000D03*
X158325000Y-36900000D03*
X158325000Y-31300000D03*
X158975000Y-31300000D03*
X159625000Y-31300000D03*
X160275000Y-31300000D03*
X160925000Y-31300000D03*
X161575000Y-31300000D03*
X162225000Y-31300000D03*
X162875000Y-31300000D03*
X163525000Y-31300000D03*
X164175000Y-31300000D03*
X164825000Y-31300000D03*
X165475000Y-31300000D03*
D21*
X161900000Y-34100000D03*
%TD*%
D15*
%TO.C,C8*%
X160062500Y-56400000D03*
X158337500Y-56400000D03*
%TD*%
D22*
%TO.C,C4*%
X145350000Y-30612500D03*
X145350000Y-28887500D03*
%TD*%
M02*
