%TF.GenerationSoftware,KiCad,Pcbnew,(6.0.2)*%
%TF.CreationDate,2023-02-10T00:02:38+03:00*%
%TF.ProjectId,Pistol_Camera_Driver,50697374-6f6c-45f4-9361-6d6572615f44,rev?*%
%TF.SameCoordinates,Original*%
%TF.FileFunction,Legend,Top*%
%TF.FilePolarity,Positive*%
%FSLAX46Y46*%
G04 Gerber Fmt 4.6, Leading zero omitted, Abs format (unit mm)*
G04 Created by KiCad (PCBNEW (6.0.2)) date 2023-02-10 00:02:38*
%MOMM*%
%LPD*%
G01*
G04 APERTURE LIST*
%ADD10C,0.150000*%
%ADD11C,0.120000*%
G04 APERTURE END LIST*
D10*
%TO.C,J12*%
X101040476Y-26852380D02*
X101040476Y-27566666D01*
X100992857Y-27709523D01*
X100897619Y-27804761D01*
X100754761Y-27852380D01*
X100659523Y-27852380D01*
X102040476Y-27852380D02*
X101469047Y-27852380D01*
X101754761Y-27852380D02*
X101754761Y-26852380D01*
X101659523Y-26995238D01*
X101564285Y-27090476D01*
X101469047Y-27138095D01*
X102421428Y-26947619D02*
X102469047Y-26900000D01*
X102564285Y-26852380D01*
X102802380Y-26852380D01*
X102897619Y-26900000D01*
X102945238Y-26947619D01*
X102992857Y-27042857D01*
X102992857Y-27138095D01*
X102945238Y-27280952D01*
X102373809Y-27852380D01*
X102992857Y-27852380D01*
%TO.C,J11*%
X90832380Y-62109523D02*
X91546666Y-62109523D01*
X91689523Y-62157142D01*
X91784761Y-62252380D01*
X91832380Y-62395238D01*
X91832380Y-62490476D01*
X91832380Y-61109523D02*
X91832380Y-61680952D01*
X91832380Y-61395238D02*
X90832380Y-61395238D01*
X90975238Y-61490476D01*
X91070476Y-61585714D01*
X91118095Y-61680952D01*
X91832380Y-60157142D02*
X91832380Y-60728571D01*
X91832380Y-60442857D02*
X90832380Y-60442857D01*
X90975238Y-60538095D01*
X91070476Y-60633333D01*
X91118095Y-60728571D01*
%TO.C,J1*%
X83606666Y-59977380D02*
X83606666Y-60691666D01*
X83559047Y-60834523D01*
X83463809Y-60929761D01*
X83320952Y-60977380D01*
X83225714Y-60977380D01*
X84606666Y-60977380D02*
X84035238Y-60977380D01*
X84320952Y-60977380D02*
X84320952Y-59977380D01*
X84225714Y-60120238D01*
X84130476Y-60215476D01*
X84035238Y-60263095D01*
%TO.C,U11*%
X130661904Y-43902380D02*
X130661904Y-44711904D01*
X130709523Y-44807142D01*
X130757142Y-44854761D01*
X130852380Y-44902380D01*
X131042857Y-44902380D01*
X131138095Y-44854761D01*
X131185714Y-44807142D01*
X131233333Y-44711904D01*
X131233333Y-43902380D01*
X132233333Y-44902380D02*
X131661904Y-44902380D01*
X131947619Y-44902380D02*
X131947619Y-43902380D01*
X131852380Y-44045238D01*
X131757142Y-44140476D01*
X131661904Y-44188095D01*
X133185714Y-44902380D02*
X132614285Y-44902380D01*
X132900000Y-44902380D02*
X132900000Y-43902380D01*
X132804761Y-44045238D01*
X132709523Y-44140476D01*
X132614285Y-44188095D01*
%TO.C,J9*%
X155216666Y-38482380D02*
X155216666Y-39196666D01*
X155169047Y-39339523D01*
X155073809Y-39434761D01*
X154930952Y-39482380D01*
X154835714Y-39482380D01*
X155740476Y-39482380D02*
X155930952Y-39482380D01*
X156026190Y-39434761D01*
X156073809Y-39387142D01*
X156169047Y-39244285D01*
X156216666Y-39053809D01*
X156216666Y-38672857D01*
X156169047Y-38577619D01*
X156121428Y-38530000D01*
X156026190Y-38482380D01*
X155835714Y-38482380D01*
X155740476Y-38530000D01*
X155692857Y-38577619D01*
X155645238Y-38672857D01*
X155645238Y-38910952D01*
X155692857Y-39006190D01*
X155740476Y-39053809D01*
X155835714Y-39101428D01*
X156026190Y-39101428D01*
X156121428Y-39053809D01*
X156169047Y-39006190D01*
X156216666Y-38910952D01*
%TO.C,C1*%
X165133333Y-62557142D02*
X165085714Y-62604761D01*
X164942857Y-62652380D01*
X164847619Y-62652380D01*
X164704761Y-62604761D01*
X164609523Y-62509523D01*
X164561904Y-62414285D01*
X164514285Y-62223809D01*
X164514285Y-62080952D01*
X164561904Y-61890476D01*
X164609523Y-61795238D01*
X164704761Y-61700000D01*
X164847619Y-61652380D01*
X164942857Y-61652380D01*
X165085714Y-61700000D01*
X165133333Y-61747619D01*
X166085714Y-62652380D02*
X165514285Y-62652380D01*
X165800000Y-62652380D02*
X165800000Y-61652380D01*
X165704761Y-61795238D01*
X165609523Y-61890476D01*
X165514285Y-61938095D01*
%TO.C,C9*%
X156233333Y-25607142D02*
X156185714Y-25654761D01*
X156042857Y-25702380D01*
X155947619Y-25702380D01*
X155804761Y-25654761D01*
X155709523Y-25559523D01*
X155661904Y-25464285D01*
X155614285Y-25273809D01*
X155614285Y-25130952D01*
X155661904Y-24940476D01*
X155709523Y-24845238D01*
X155804761Y-24750000D01*
X155947619Y-24702380D01*
X156042857Y-24702380D01*
X156185714Y-24750000D01*
X156233333Y-24797619D01*
X156709523Y-25702380D02*
X156900000Y-25702380D01*
X156995238Y-25654761D01*
X157042857Y-25607142D01*
X157138095Y-25464285D01*
X157185714Y-25273809D01*
X157185714Y-24892857D01*
X157138095Y-24797619D01*
X157090476Y-24750000D01*
X156995238Y-24702380D01*
X156804761Y-24702380D01*
X156709523Y-24750000D01*
X156661904Y-24797619D01*
X156614285Y-24892857D01*
X156614285Y-25130952D01*
X156661904Y-25226190D01*
X156709523Y-25273809D01*
X156804761Y-25321428D01*
X156995238Y-25321428D01*
X157090476Y-25273809D01*
X157138095Y-25226190D01*
X157185714Y-25130952D01*
%TO.C,J3*%
X97916666Y-25152380D02*
X97916666Y-25866666D01*
X97869047Y-26009523D01*
X97773809Y-26104761D01*
X97630952Y-26152380D01*
X97535714Y-26152380D01*
X98297619Y-25152380D02*
X98916666Y-25152380D01*
X98583333Y-25533333D01*
X98726190Y-25533333D01*
X98821428Y-25580952D01*
X98869047Y-25628571D01*
X98916666Y-25723809D01*
X98916666Y-25961904D01*
X98869047Y-26057142D01*
X98821428Y-26104761D01*
X98726190Y-26152380D01*
X98440476Y-26152380D01*
X98345238Y-26104761D01*
X98297619Y-26057142D01*
%TO.C,J7*%
X154741666Y-51832380D02*
X154741666Y-52546666D01*
X154694047Y-52689523D01*
X154598809Y-52784761D01*
X154455952Y-52832380D01*
X154360714Y-52832380D01*
X155122619Y-51832380D02*
X155789285Y-51832380D01*
X155360714Y-52832380D01*
%TO.C,U1*%
X81538095Y-30802380D02*
X81538095Y-31611904D01*
X81585714Y-31707142D01*
X81633333Y-31754761D01*
X81728571Y-31802380D01*
X81919047Y-31802380D01*
X82014285Y-31754761D01*
X82061904Y-31707142D01*
X82109523Y-31611904D01*
X82109523Y-30802380D01*
X83109523Y-31802380D02*
X82538095Y-31802380D01*
X82823809Y-31802380D02*
X82823809Y-30802380D01*
X82728571Y-30945238D01*
X82633333Y-31040476D01*
X82538095Y-31088095D01*
%TO.C,U3*%
X77152380Y-45261904D02*
X77961904Y-45261904D01*
X78057142Y-45214285D01*
X78104761Y-45166666D01*
X78152380Y-45071428D01*
X78152380Y-44880952D01*
X78104761Y-44785714D01*
X78057142Y-44738095D01*
X77961904Y-44690476D01*
X77152380Y-44690476D01*
X77152380Y-44309523D02*
X77152380Y-43690476D01*
X77533333Y-44023809D01*
X77533333Y-43880952D01*
X77580952Y-43785714D01*
X77628571Y-43738095D01*
X77723809Y-43690476D01*
X77961904Y-43690476D01*
X78057142Y-43738095D01*
X78104761Y-43785714D01*
X78152380Y-43880952D01*
X78152380Y-44166666D01*
X78104761Y-44261904D01*
X78057142Y-44309523D01*
%TO.C,J4*%
X83666666Y-25052380D02*
X83666666Y-25766666D01*
X83619047Y-25909523D01*
X83523809Y-26004761D01*
X83380952Y-26052380D01*
X83285714Y-26052380D01*
X84571428Y-25385714D02*
X84571428Y-26052380D01*
X84333333Y-25004761D02*
X84095238Y-25719047D01*
X84714285Y-25719047D01*
%TO.C,J5*%
X122136666Y-59527380D02*
X122136666Y-60241666D01*
X122089047Y-60384523D01*
X121993809Y-60479761D01*
X121850952Y-60527380D01*
X121755714Y-60527380D01*
X123089047Y-59527380D02*
X122612857Y-59527380D01*
X122565238Y-60003571D01*
X122612857Y-59955952D01*
X122708095Y-59908333D01*
X122946190Y-59908333D01*
X123041428Y-59955952D01*
X123089047Y-60003571D01*
X123136666Y-60098809D01*
X123136666Y-60336904D01*
X123089047Y-60432142D01*
X123041428Y-60479761D01*
X122946190Y-60527380D01*
X122708095Y-60527380D01*
X122612857Y-60479761D01*
X122565238Y-60432142D01*
X111208095Y-62254761D02*
X111350952Y-62302380D01*
X111589047Y-62302380D01*
X111684285Y-62254761D01*
X111731904Y-62207142D01*
X111779523Y-62111904D01*
X111779523Y-62016666D01*
X111731904Y-61921428D01*
X111684285Y-61873809D01*
X111589047Y-61826190D01*
X111398571Y-61778571D01*
X111303333Y-61730952D01*
X111255714Y-61683333D01*
X111208095Y-61588095D01*
X111208095Y-61492857D01*
X111255714Y-61397619D01*
X111303333Y-61350000D01*
X111398571Y-61302380D01*
X111636666Y-61302380D01*
X111779523Y-61350000D01*
X112398571Y-61302380D02*
X112589047Y-61302380D01*
X112684285Y-61350000D01*
X112779523Y-61445238D01*
X112827142Y-61635714D01*
X112827142Y-61969047D01*
X112779523Y-62159523D01*
X112684285Y-62254761D01*
X112589047Y-62302380D01*
X112398571Y-62302380D01*
X112303333Y-62254761D01*
X112208095Y-62159523D01*
X112160476Y-61969047D01*
X112160476Y-61635714D01*
X112208095Y-61445238D01*
X112303333Y-61350000D01*
X112398571Y-61302380D01*
X113255714Y-62302380D02*
X113255714Y-61302380D01*
X113827142Y-62302380D01*
X113827142Y-61302380D01*
X114255714Y-62016666D02*
X114731904Y-62016666D01*
X114160476Y-62302380D02*
X114493809Y-61302380D01*
X114827142Y-62302380D01*
X115731904Y-62302380D02*
X115398571Y-61826190D01*
X115160476Y-62302380D02*
X115160476Y-61302380D01*
X115541428Y-61302380D01*
X115636666Y-61350000D01*
X115684285Y-61397619D01*
X115731904Y-61492857D01*
X115731904Y-61635714D01*
X115684285Y-61730952D01*
X115636666Y-61778571D01*
X115541428Y-61826190D01*
X115160476Y-61826190D01*
%TO.C,Je1*%
X154813095Y-29732380D02*
X154813095Y-30446666D01*
X154765476Y-30589523D01*
X154670238Y-30684761D01*
X154527380Y-30732380D01*
X154432142Y-30732380D01*
X155670238Y-30684761D02*
X155575000Y-30732380D01*
X155384523Y-30732380D01*
X155289285Y-30684761D01*
X155241666Y-30589523D01*
X155241666Y-30208571D01*
X155289285Y-30113333D01*
X155384523Y-30065714D01*
X155575000Y-30065714D01*
X155670238Y-30113333D01*
X155717857Y-30208571D01*
X155717857Y-30303809D01*
X155241666Y-30399047D01*
X156670238Y-30732380D02*
X156098809Y-30732380D01*
X156384523Y-30732380D02*
X156384523Y-29732380D01*
X156289285Y-29875238D01*
X156194047Y-29970476D01*
X156098809Y-30018095D01*
%TO.C,U9*%
X141738095Y-28202380D02*
X141738095Y-29011904D01*
X141785714Y-29107142D01*
X141833333Y-29154761D01*
X141928571Y-29202380D01*
X142119047Y-29202380D01*
X142214285Y-29154761D01*
X142261904Y-29107142D01*
X142309523Y-29011904D01*
X142309523Y-28202380D01*
X142833333Y-29202380D02*
X143023809Y-29202380D01*
X143119047Y-29154761D01*
X143166666Y-29107142D01*
X143261904Y-28964285D01*
X143309523Y-28773809D01*
X143309523Y-28392857D01*
X143261904Y-28297619D01*
X143214285Y-28250000D01*
X143119047Y-28202380D01*
X142928571Y-28202380D01*
X142833333Y-28250000D01*
X142785714Y-28297619D01*
X142738095Y-28392857D01*
X142738095Y-28630952D01*
X142785714Y-28726190D01*
X142833333Y-28773809D01*
X142928571Y-28821428D01*
X143119047Y-28821428D01*
X143214285Y-28773809D01*
X143261904Y-28726190D01*
X143309523Y-28630952D01*
%TO.C,U7*%
X128138095Y-61402380D02*
X128138095Y-62211904D01*
X128185714Y-62307142D01*
X128233333Y-62354761D01*
X128328571Y-62402380D01*
X128519047Y-62402380D01*
X128614285Y-62354761D01*
X128661904Y-62307142D01*
X128709523Y-62211904D01*
X128709523Y-61402380D01*
X129090476Y-61402380D02*
X129757142Y-61402380D01*
X129328571Y-62402380D01*
%TO.C,R13*%
X151857142Y-28302380D02*
X151523809Y-27826190D01*
X151285714Y-28302380D02*
X151285714Y-27302380D01*
X151666666Y-27302380D01*
X151761904Y-27350000D01*
X151809523Y-27397619D01*
X151857142Y-27492857D01*
X151857142Y-27635714D01*
X151809523Y-27730952D01*
X151761904Y-27778571D01*
X151666666Y-27826190D01*
X151285714Y-27826190D01*
X152809523Y-28302380D02*
X152238095Y-28302380D01*
X152523809Y-28302380D02*
X152523809Y-27302380D01*
X152428571Y-27445238D01*
X152333333Y-27540476D01*
X152238095Y-27588095D01*
X153142857Y-27302380D02*
X153761904Y-27302380D01*
X153428571Y-27683333D01*
X153571428Y-27683333D01*
X153666666Y-27730952D01*
X153714285Y-27778571D01*
X153761904Y-27873809D01*
X153761904Y-28111904D01*
X153714285Y-28207142D01*
X153666666Y-28254761D01*
X153571428Y-28302380D01*
X153285714Y-28302380D01*
X153190476Y-28254761D01*
X153142857Y-28207142D01*
%TO.C,J8*%
X104166666Y-61702380D02*
X104166666Y-62416666D01*
X104119047Y-62559523D01*
X104023809Y-62654761D01*
X103880952Y-62702380D01*
X103785714Y-62702380D01*
X104785714Y-62130952D02*
X104690476Y-62083333D01*
X104642857Y-62035714D01*
X104595238Y-61940476D01*
X104595238Y-61892857D01*
X104642857Y-61797619D01*
X104690476Y-61750000D01*
X104785714Y-61702380D01*
X104976190Y-61702380D01*
X105071428Y-61750000D01*
X105119047Y-61797619D01*
X105166666Y-61892857D01*
X105166666Y-61940476D01*
X105119047Y-62035714D01*
X105071428Y-62083333D01*
X104976190Y-62130952D01*
X104785714Y-62130952D01*
X104690476Y-62178571D01*
X104642857Y-62226190D01*
X104595238Y-62321428D01*
X104595238Y-62511904D01*
X104642857Y-62607142D01*
X104690476Y-62654761D01*
X104785714Y-62702380D01*
X104976190Y-62702380D01*
X105071428Y-62654761D01*
X105119047Y-62607142D01*
X105166666Y-62511904D01*
X105166666Y-62321428D01*
X105119047Y-62226190D01*
X105071428Y-62178571D01*
X104976190Y-62130952D01*
%TO.C,J2*%
X169366666Y-42802380D02*
X169366666Y-43516666D01*
X169319047Y-43659523D01*
X169223809Y-43754761D01*
X169080952Y-43802380D01*
X168985714Y-43802380D01*
X169795238Y-42897619D02*
X169842857Y-42850000D01*
X169938095Y-42802380D01*
X170176190Y-42802380D01*
X170271428Y-42850000D01*
X170319047Y-42897619D01*
X170366666Y-42992857D01*
X170366666Y-43088095D01*
X170319047Y-43230952D01*
X169747619Y-43802380D01*
X170366666Y-43802380D01*
X165073809Y-44202380D02*
X165264285Y-44202380D01*
X165359523Y-44250000D01*
X165454761Y-44345238D01*
X165502380Y-44535714D01*
X165502380Y-44869047D01*
X165454761Y-45059523D01*
X165359523Y-45154761D01*
X165264285Y-45202380D01*
X165073809Y-45202380D01*
X164978571Y-45154761D01*
X164883333Y-45059523D01*
X164835714Y-44869047D01*
X164835714Y-44535714D01*
X164883333Y-44345238D01*
X164978571Y-44250000D01*
X165073809Y-44202380D01*
X165930952Y-45202380D02*
X165930952Y-44202380D01*
X165930952Y-44583333D02*
X166026190Y-44535714D01*
X166216666Y-44535714D01*
X166311904Y-44583333D01*
X166359523Y-44630952D01*
X166407142Y-44726190D01*
X166407142Y-45011904D01*
X166359523Y-45107142D01*
X166311904Y-45154761D01*
X166216666Y-45202380D01*
X166026190Y-45202380D01*
X165930952Y-45154761D01*
X166835714Y-44535714D02*
X166835714Y-45392857D01*
X166788095Y-45488095D01*
X166692857Y-45535714D01*
X166645238Y-45535714D01*
X166835714Y-44202380D02*
X166788095Y-44250000D01*
X166835714Y-44297619D01*
X166883333Y-44250000D01*
X166835714Y-44202380D01*
X166835714Y-44297619D01*
X167692857Y-45154761D02*
X167597619Y-45202380D01*
X167407142Y-45202380D01*
X167311904Y-45154761D01*
X167264285Y-45059523D01*
X167264285Y-44678571D01*
X167311904Y-44583333D01*
X167407142Y-44535714D01*
X167597619Y-44535714D01*
X167692857Y-44583333D01*
X167740476Y-44678571D01*
X167740476Y-44773809D01*
X167264285Y-44869047D01*
X168597619Y-45154761D02*
X168502380Y-45202380D01*
X168311904Y-45202380D01*
X168216666Y-45154761D01*
X168169047Y-45107142D01*
X168121428Y-45011904D01*
X168121428Y-44726190D01*
X168169047Y-44630952D01*
X168216666Y-44583333D01*
X168311904Y-44535714D01*
X168502380Y-44535714D01*
X168597619Y-44583333D01*
X168883333Y-44535714D02*
X169264285Y-44535714D01*
X169026190Y-44202380D02*
X169026190Y-45059523D01*
X169073809Y-45154761D01*
X169169047Y-45202380D01*
X169264285Y-45202380D01*
X169597619Y-45202380D02*
X169597619Y-44535714D01*
X169597619Y-44202380D02*
X169550000Y-44250000D01*
X169597619Y-44297619D01*
X169645238Y-44250000D01*
X169597619Y-44202380D01*
X169597619Y-44297619D01*
X169978571Y-44535714D02*
X170216666Y-45202380D01*
X170454761Y-44535714D01*
X171216666Y-45154761D02*
X171121428Y-45202380D01*
X170930952Y-45202380D01*
X170835714Y-45154761D01*
X170788095Y-45059523D01*
X170788095Y-44678571D01*
X170835714Y-44583333D01*
X170930952Y-44535714D01*
X171121428Y-44535714D01*
X171216666Y-44583333D01*
X171264285Y-44678571D01*
X171264285Y-44773809D01*
X170788095Y-44869047D01*
%TO.C,J10*%
X81490476Y-57102380D02*
X81490476Y-57816666D01*
X81442857Y-57959523D01*
X81347619Y-58054761D01*
X81204761Y-58102380D01*
X81109523Y-58102380D01*
X82490476Y-58102380D02*
X81919047Y-58102380D01*
X82204761Y-58102380D02*
X82204761Y-57102380D01*
X82109523Y-57245238D01*
X82014285Y-57340476D01*
X81919047Y-57388095D01*
X83109523Y-57102380D02*
X83204761Y-57102380D01*
X83300000Y-57150000D01*
X83347619Y-57197619D01*
X83395238Y-57292857D01*
X83442857Y-57483333D01*
X83442857Y-57721428D01*
X83395238Y-57911904D01*
X83347619Y-58007142D01*
X83300000Y-58054761D01*
X83204761Y-58102380D01*
X83109523Y-58102380D01*
X83014285Y-58054761D01*
X82966666Y-58007142D01*
X82919047Y-57911904D01*
X82871428Y-57721428D01*
X82871428Y-57483333D01*
X82919047Y-57292857D01*
X82966666Y-57197619D01*
X83014285Y-57150000D01*
X83109523Y-57102380D01*
%TO.C,J6*%
X107136666Y-26452380D02*
X107136666Y-27166666D01*
X107089047Y-27309523D01*
X106993809Y-27404761D01*
X106850952Y-27452380D01*
X106755714Y-27452380D01*
X108041428Y-26452380D02*
X107850952Y-26452380D01*
X107755714Y-26500000D01*
X107708095Y-26547619D01*
X107612857Y-26690476D01*
X107565238Y-26880952D01*
X107565238Y-27261904D01*
X107612857Y-27357142D01*
X107660476Y-27404761D01*
X107755714Y-27452380D01*
X107946190Y-27452380D01*
X108041428Y-27404761D01*
X108089047Y-27357142D01*
X108136666Y-27261904D01*
X108136666Y-27023809D01*
X108089047Y-26928571D01*
X108041428Y-26880952D01*
X107946190Y-26833333D01*
X107755714Y-26833333D01*
X107660476Y-26880952D01*
X107612857Y-26928571D01*
X107565238Y-27023809D01*
X111267619Y-26352380D02*
X111267619Y-27066666D01*
X111220000Y-27209523D01*
X111124761Y-27304761D01*
X110981904Y-27352380D01*
X110886666Y-27352380D01*
X111886666Y-27352380D02*
X111791428Y-27304761D01*
X111743809Y-27257142D01*
X111696190Y-27161904D01*
X111696190Y-26876190D01*
X111743809Y-26780952D01*
X111791428Y-26733333D01*
X111886666Y-26685714D01*
X112029523Y-26685714D01*
X112124761Y-26733333D01*
X112172380Y-26780952D01*
X112220000Y-26876190D01*
X112220000Y-27161904D01*
X112172380Y-27257142D01*
X112124761Y-27304761D01*
X112029523Y-27352380D01*
X111886666Y-27352380D01*
X112553333Y-26685714D02*
X112791428Y-27352380D01*
X113029523Y-26685714D02*
X112791428Y-27352380D01*
X112696190Y-27590476D01*
X112648571Y-27638095D01*
X112553333Y-27685714D01*
X113362857Y-27304761D02*
X113458095Y-27352380D01*
X113648571Y-27352380D01*
X113743809Y-27304761D01*
X113791428Y-27209523D01*
X113791428Y-27161904D01*
X113743809Y-27066666D01*
X113648571Y-27019047D01*
X113505714Y-27019047D01*
X113410476Y-26971428D01*
X113362857Y-26876190D01*
X113362857Y-26828571D01*
X113410476Y-26733333D01*
X113505714Y-26685714D01*
X113648571Y-26685714D01*
X113743809Y-26733333D01*
X114077142Y-26685714D02*
X114458095Y-26685714D01*
X114220000Y-26352380D02*
X114220000Y-27209523D01*
X114267619Y-27304761D01*
X114362857Y-27352380D01*
X114458095Y-27352380D01*
X114791428Y-27352380D02*
X114791428Y-26685714D01*
X114791428Y-26352380D02*
X114743809Y-26400000D01*
X114791428Y-26447619D01*
X114839047Y-26400000D01*
X114791428Y-26352380D01*
X114791428Y-26447619D01*
X115696190Y-27304761D02*
X115600952Y-27352380D01*
X115410476Y-27352380D01*
X115315238Y-27304761D01*
X115267619Y-27257142D01*
X115220000Y-27161904D01*
X115220000Y-26876190D01*
X115267619Y-26780952D01*
X115315238Y-26733333D01*
X115410476Y-26685714D01*
X115600952Y-26685714D01*
X115696190Y-26733333D01*
X116124761Y-27352380D02*
X116124761Y-26352380D01*
X116220000Y-26971428D02*
X116505714Y-27352380D01*
X116505714Y-26685714D02*
X116124761Y-27066666D01*
D11*
%TO.C,J12*%
X101970000Y-30855000D02*
X104570000Y-30855000D01*
X101970000Y-28195000D02*
X104570000Y-28195000D01*
X101970000Y-30855000D02*
X101970000Y-28195000D01*
X99370000Y-29525000D02*
X99370000Y-28195000D01*
X99370000Y-28195000D02*
X100700000Y-28195000D01*
X104570000Y-30855000D02*
X104570000Y-28195000D01*
%TO.C,J11*%
X95420000Y-62630000D02*
X98020000Y-62630000D01*
X95420000Y-59970000D02*
X98020000Y-59970000D01*
X95420000Y-62630000D02*
X95420000Y-59970000D01*
X92820000Y-61300000D02*
X92820000Y-59970000D01*
X92820000Y-59970000D02*
X94150000Y-59970000D01*
X98020000Y-62630000D02*
X98020000Y-59970000D01*
%TO.C,J1*%
X90970000Y-62630000D02*
X89640000Y-62630000D01*
X90970000Y-61300000D02*
X90970000Y-62630000D01*
X88370000Y-59970000D02*
X85770000Y-59970000D01*
X88370000Y-59970000D02*
X88370000Y-62630000D01*
X88370000Y-62630000D02*
X85770000Y-62630000D01*
X85770000Y-59970000D02*
X85770000Y-62630000D01*
%TO.C,U11*%
X130160000Y-40430000D02*
X153020000Y-40430000D01*
X153020000Y-40430000D02*
X153020000Y-50590000D01*
X153020000Y-50590000D02*
X130160000Y-50590000D01*
X130160000Y-50590000D02*
X130160000Y-40430000D01*
%TO.C,J9*%
X155550000Y-40470000D02*
X156880000Y-40470000D01*
X154220000Y-45670000D02*
X156880000Y-45670000D01*
X156880000Y-40470000D02*
X156880000Y-41800000D01*
X154220000Y-43070000D02*
X156880000Y-43070000D01*
X154220000Y-43070000D02*
X154220000Y-45670000D01*
X156880000Y-43070000D02*
X156880000Y-45670000D01*
%TO.C,C1*%
X160960000Y-61051000D02*
X159188000Y-61051000D01*
X164305000Y-61731000D02*
X163040000Y-61731000D01*
X164265000Y-61771000D02*
X159735000Y-61771000D01*
X160960000Y-61691000D02*
X159657000Y-61691000D01*
X160960000Y-61251000D02*
X159310000Y-61251000D01*
X165230000Y-59450000D02*
X158770000Y-59450000D01*
X165047000Y-60531000D02*
X163040000Y-60531000D01*
X163776000Y-62171000D02*
X160224000Y-62171000D01*
X165167000Y-60090000D02*
X163040000Y-60090000D01*
X160960000Y-61611000D02*
X159584000Y-61611000D01*
X160960000Y-61491000D02*
X159484000Y-61491000D01*
X160960000Y-60731000D02*
X159030000Y-60731000D01*
X162402000Y-62691000D02*
X161598000Y-62691000D01*
X160960000Y-61091000D02*
X159210000Y-61091000D01*
X164137000Y-61891000D02*
X159863000Y-61891000D01*
X160960000Y-61571000D02*
X159550000Y-61571000D01*
X164690000Y-61251000D02*
X163040000Y-61251000D01*
X160960000Y-60691000D02*
X159014000Y-60691000D01*
X160960000Y-59970000D02*
X158811000Y-59970000D01*
X163350000Y-62411000D02*
X160650000Y-62411000D01*
X162940000Y-62571000D02*
X161060000Y-62571000D01*
X164224000Y-61811000D02*
X159776000Y-61811000D01*
X165230000Y-59530000D02*
X158770000Y-59530000D01*
X160960000Y-61331000D02*
X159364000Y-61331000D01*
X164636000Y-61331000D02*
X163040000Y-61331000D01*
X160960000Y-60451000D02*
X158926000Y-60451000D01*
X164916000Y-60851000D02*
X163040000Y-60851000D01*
X160960000Y-60371000D02*
X158902000Y-60371000D01*
X164766000Y-61131000D02*
X163040000Y-61131000D01*
X160960000Y-61731000D02*
X159695000Y-61731000D01*
X160960000Y-60851000D02*
X159084000Y-60851000D01*
X165074000Y-60451000D02*
X163040000Y-60451000D01*
X163509000Y-62331000D02*
X160491000Y-62331000D01*
X165131000Y-60251000D02*
X163040000Y-60251000D01*
X163890000Y-62091000D02*
X160110000Y-62091000D01*
X164812000Y-61051000D02*
X163040000Y-61051000D01*
X163059000Y-62531000D02*
X160941000Y-62531000D01*
X160960000Y-61291000D02*
X159336000Y-61291000D01*
X163262000Y-62451000D02*
X160738000Y-62451000D01*
X165098000Y-60371000D02*
X163040000Y-60371000D01*
X165086000Y-60411000D02*
X163040000Y-60411000D01*
X163839000Y-55949759D02*
X163839000Y-56579759D01*
X164548000Y-61451000D02*
X163040000Y-61451000D01*
X164380000Y-61651000D02*
X163040000Y-61651000D01*
X165150000Y-60171000D02*
X163040000Y-60171000D01*
X165175000Y-60050000D02*
X163040000Y-60050000D01*
X160960000Y-60971000D02*
X159144000Y-60971000D01*
X164578000Y-61411000D02*
X163040000Y-61411000D01*
X164516000Y-61491000D02*
X163040000Y-61491000D01*
X164182000Y-61851000D02*
X159818000Y-61851000D01*
X160960000Y-61131000D02*
X159234000Y-61131000D01*
X164484000Y-61531000D02*
X163040000Y-61531000D01*
X160960000Y-59730000D02*
X158782000Y-59730000D01*
X160960000Y-61451000D02*
X159452000Y-61451000D01*
X165222000Y-59690000D02*
X163040000Y-59690000D01*
X160960000Y-61531000D02*
X159516000Y-61531000D01*
X165061000Y-60491000D02*
X163040000Y-60491000D01*
X160960000Y-60090000D02*
X158833000Y-60090000D01*
X165227000Y-59610000D02*
X158773000Y-59610000D01*
X160960000Y-60291000D02*
X158879000Y-60291000D01*
X164934000Y-60811000D02*
X163040000Y-60811000D01*
X164343000Y-61691000D02*
X163040000Y-61691000D01*
X165211000Y-59810000D02*
X163040000Y-59810000D01*
X160960000Y-60811000D02*
X159066000Y-60811000D01*
X160960000Y-60171000D02*
X158850000Y-60171000D01*
X165224000Y-59650000D02*
X158776000Y-59650000D01*
X163714000Y-62211000D02*
X160286000Y-62211000D01*
X160960000Y-61011000D02*
X159166000Y-61011000D01*
X163432000Y-62371000D02*
X160568000Y-62371000D01*
X164716000Y-61211000D02*
X163040000Y-61211000D01*
X164896000Y-60891000D02*
X163040000Y-60891000D01*
X163650000Y-62251000D02*
X160350000Y-62251000D01*
X160960000Y-60611000D02*
X158982000Y-60611000D01*
X160960000Y-61411000D02*
X159422000Y-61411000D01*
X160960000Y-61371000D02*
X159393000Y-61371000D01*
X160960000Y-61211000D02*
X159284000Y-61211000D01*
X162802000Y-62611000D02*
X161198000Y-62611000D01*
X164834000Y-61011000D02*
X163040000Y-61011000D01*
X165201000Y-59890000D02*
X163040000Y-59890000D01*
X160960000Y-60491000D02*
X158939000Y-60491000D01*
X160960000Y-60891000D02*
X159104000Y-60891000D01*
X164742000Y-61171000D02*
X163040000Y-61171000D01*
X165033000Y-60571000D02*
X163040000Y-60571000D01*
X160960000Y-59850000D02*
X158794000Y-59850000D01*
X163581000Y-62291000D02*
X160419000Y-62291000D01*
X163834000Y-62131000D02*
X160166000Y-62131000D01*
X165195000Y-59930000D02*
X163040000Y-59930000D01*
X164416000Y-61611000D02*
X163040000Y-61611000D01*
X164044000Y-61971000D02*
X159956000Y-61971000D01*
X160960000Y-61651000D02*
X159620000Y-61651000D01*
X165206000Y-59850000D02*
X163040000Y-59850000D01*
X165215000Y-59770000D02*
X163040000Y-59770000D01*
X165018000Y-60611000D02*
X163040000Y-60611000D01*
X164664000Y-61291000D02*
X163040000Y-61291000D01*
X160960000Y-60771000D02*
X159048000Y-60771000D01*
X165002000Y-60651000D02*
X163040000Y-60651000D01*
X164450000Y-61571000D02*
X163040000Y-61571000D01*
X164154000Y-56264759D02*
X163524000Y-56264759D01*
X164092000Y-61931000D02*
X159908000Y-61931000D01*
X160960000Y-60211000D02*
X158859000Y-60211000D01*
X160960000Y-60331000D02*
X158890000Y-60331000D01*
X165110000Y-60331000D02*
X163040000Y-60331000D01*
X160960000Y-59770000D02*
X158785000Y-59770000D01*
X160960000Y-60651000D02*
X158998000Y-60651000D01*
X164856000Y-60971000D02*
X163040000Y-60971000D01*
X160960000Y-60251000D02*
X158869000Y-60251000D01*
X160960000Y-60931000D02*
X159124000Y-60931000D01*
X163944000Y-62051000D02*
X160056000Y-62051000D01*
X160960000Y-60130000D02*
X158841000Y-60130000D01*
X165218000Y-59730000D02*
X163040000Y-59730000D01*
X160960000Y-60010000D02*
X158818000Y-60010000D01*
X165159000Y-60130000D02*
X163040000Y-60130000D01*
X165228000Y-59570000D02*
X158772000Y-59570000D01*
X160960000Y-59810000D02*
X158789000Y-59810000D01*
X165141000Y-60211000D02*
X163040000Y-60211000D01*
X163165000Y-62491000D02*
X160835000Y-62491000D01*
X164790000Y-61091000D02*
X163040000Y-61091000D01*
X160960000Y-59930000D02*
X158805000Y-59930000D01*
X164607000Y-61371000D02*
X163040000Y-61371000D01*
X160960000Y-60050000D02*
X158825000Y-60050000D01*
X164952000Y-60771000D02*
X163040000Y-60771000D01*
X164986000Y-60691000D02*
X163040000Y-60691000D01*
X160960000Y-60571000D02*
X158967000Y-60571000D01*
X160960000Y-60411000D02*
X158914000Y-60411000D01*
X165189000Y-59970000D02*
X163040000Y-59970000D01*
X160960000Y-60531000D02*
X158953000Y-60531000D01*
X160960000Y-61171000D02*
X159258000Y-61171000D01*
X163995000Y-62011000D02*
X160005000Y-62011000D01*
X160960000Y-59690000D02*
X158778000Y-59690000D01*
X164876000Y-60931000D02*
X163040000Y-60931000D01*
X162633000Y-62651000D02*
X161367000Y-62651000D01*
X165230000Y-59490000D02*
X158770000Y-59490000D01*
X164970000Y-60731000D02*
X163040000Y-60731000D01*
X165182000Y-60010000D02*
X163040000Y-60010000D01*
X165121000Y-60291000D02*
X163040000Y-60291000D01*
X160960000Y-59890000D02*
X158799000Y-59890000D01*
X165270000Y-59450000D02*
G75*
G03*
X165270000Y-59450000I-3270000J0D01*
G01*
%TO.C,C9*%
X158229000Y-30307000D02*
X158229000Y-28740000D01*
X156949000Y-28333000D02*
X156949000Y-27067000D01*
X158189000Y-30278000D02*
X158189000Y-28740000D01*
X159510000Y-30867000D02*
X159510000Y-28740000D01*
X157029000Y-28640000D02*
X157029000Y-26760000D01*
X159429000Y-26660000D02*
X159429000Y-24550000D01*
X158549000Y-26660000D02*
X158549000Y-24888000D01*
X158629000Y-30556000D02*
X158629000Y-28740000D01*
X159790000Y-26660000D02*
X159790000Y-24489000D01*
X159309000Y-26660000D02*
X159309000Y-24579000D01*
X157909000Y-30043000D02*
X157909000Y-28740000D01*
X158869000Y-30670000D02*
X158869000Y-28740000D01*
X157709000Y-29837000D02*
X157709000Y-25563000D01*
X157109000Y-28865000D02*
X157109000Y-26535000D01*
X158869000Y-26660000D02*
X158869000Y-24730000D01*
X157949000Y-30080000D02*
X157949000Y-28740000D01*
X158389000Y-26660000D02*
X158389000Y-24984000D01*
X158749000Y-30616000D02*
X158749000Y-28740000D01*
X158909000Y-26660000D02*
X158909000Y-24714000D01*
X158069000Y-30184000D02*
X158069000Y-28740000D01*
X159830000Y-30915000D02*
X159830000Y-28740000D01*
X157549000Y-29644000D02*
X157549000Y-25756000D01*
X158669000Y-30576000D02*
X158669000Y-28740000D01*
X159870000Y-30918000D02*
X159870000Y-28740000D01*
X159670000Y-30895000D02*
X159670000Y-28740000D01*
X157509000Y-29590000D02*
X157509000Y-25810000D01*
X159510000Y-26660000D02*
X159510000Y-24533000D01*
X158789000Y-26660000D02*
X158789000Y-24766000D01*
X159109000Y-26660000D02*
X159109000Y-24639000D01*
X159910000Y-26660000D02*
X159910000Y-24478000D01*
X158829000Y-26660000D02*
X158829000Y-24748000D01*
X157669000Y-29792000D02*
X157669000Y-25608000D01*
X159069000Y-26660000D02*
X159069000Y-24653000D01*
X159149000Y-30774000D02*
X159149000Y-28740000D01*
X159069000Y-30747000D02*
X159069000Y-28740000D01*
X158909000Y-30686000D02*
X158909000Y-28740000D01*
X158149000Y-30248000D02*
X158149000Y-28740000D01*
X157189000Y-29050000D02*
X157189000Y-26350000D01*
X159590000Y-26660000D02*
X159590000Y-24518000D01*
X159189000Y-26660000D02*
X159189000Y-24614000D01*
X158269000Y-30336000D02*
X158269000Y-28740000D01*
X157909000Y-26660000D02*
X157909000Y-25357000D01*
X159429000Y-30850000D02*
X159429000Y-28740000D01*
X158069000Y-26660000D02*
X158069000Y-25216000D01*
X159470000Y-26660000D02*
X159470000Y-24541000D01*
X157469000Y-29534000D02*
X157469000Y-25866000D01*
X158309000Y-30364000D02*
X158309000Y-28740000D01*
X158669000Y-26660000D02*
X158669000Y-24824000D01*
X158629000Y-26660000D02*
X158629000Y-24844000D01*
X156989000Y-28502000D02*
X156989000Y-26898000D01*
X157429000Y-29476000D02*
X157429000Y-25924000D01*
X158029000Y-30150000D02*
X158029000Y-28740000D01*
X158149000Y-26660000D02*
X158149000Y-25152000D01*
X157989000Y-26660000D02*
X157989000Y-25284000D01*
X158429000Y-30442000D02*
X158429000Y-28740000D01*
X159389000Y-30841000D02*
X159389000Y-28740000D01*
X159790000Y-30911000D02*
X159790000Y-28740000D01*
X159149000Y-26660000D02*
X159149000Y-24626000D01*
X158349000Y-26660000D02*
X158349000Y-25010000D01*
X158189000Y-26660000D02*
X158189000Y-25122000D01*
X158429000Y-26660000D02*
X158429000Y-24958000D01*
X158749000Y-26660000D02*
X158749000Y-24784000D01*
X159309000Y-30821000D02*
X159309000Y-28740000D01*
X158229000Y-26660000D02*
X158229000Y-25093000D01*
X160030000Y-30928000D02*
X160030000Y-24472000D01*
X159710000Y-26660000D02*
X159710000Y-24499000D01*
X157229000Y-29132000D02*
X157229000Y-26268000D01*
X163650241Y-29539000D02*
X163020241Y-29539000D01*
X157949000Y-26660000D02*
X157949000Y-25320000D01*
X158509000Y-26660000D02*
X158509000Y-24910000D01*
X159349000Y-26660000D02*
X159349000Y-24569000D01*
X157269000Y-29209000D02*
X157269000Y-26191000D01*
X157349000Y-29350000D02*
X157349000Y-26050000D01*
X160110000Y-30930000D02*
X160110000Y-24470000D01*
X158549000Y-30512000D02*
X158549000Y-28740000D01*
X159950000Y-30924000D02*
X159950000Y-24476000D01*
X159029000Y-26660000D02*
X159029000Y-24667000D01*
X158709000Y-30596000D02*
X158709000Y-28740000D01*
X158469000Y-30466000D02*
X158469000Y-28740000D01*
X158989000Y-30718000D02*
X158989000Y-28740000D01*
X158349000Y-30390000D02*
X158349000Y-28740000D01*
X159590000Y-30882000D02*
X159590000Y-28740000D01*
X159990000Y-30927000D02*
X159990000Y-24473000D01*
X158949000Y-30702000D02*
X158949000Y-28740000D01*
X157869000Y-26660000D02*
X157869000Y-25395000D01*
X160070000Y-30930000D02*
X160070000Y-24470000D01*
X159870000Y-26660000D02*
X159870000Y-24482000D01*
X159710000Y-30901000D02*
X159710000Y-28740000D01*
X163335241Y-29854000D02*
X163335241Y-29224000D01*
X158389000Y-30416000D02*
X158389000Y-28740000D01*
X158789000Y-30634000D02*
X158789000Y-28740000D01*
X159269000Y-26660000D02*
X159269000Y-24590000D01*
X159389000Y-26660000D02*
X159389000Y-24559000D01*
X159189000Y-30786000D02*
X159189000Y-28740000D01*
X158709000Y-26660000D02*
X158709000Y-24804000D01*
X157589000Y-29695000D02*
X157589000Y-25705000D01*
X159269000Y-30810000D02*
X159269000Y-28740000D01*
X157389000Y-29414000D02*
X157389000Y-25986000D01*
X159630000Y-26660000D02*
X159630000Y-24511000D01*
X159349000Y-30831000D02*
X159349000Y-28740000D01*
X158949000Y-26660000D02*
X158949000Y-24698000D01*
X160150000Y-30930000D02*
X160150000Y-24470000D01*
X158309000Y-26660000D02*
X158309000Y-25036000D01*
X157309000Y-29281000D02*
X157309000Y-26119000D01*
X158469000Y-26660000D02*
X158469000Y-24934000D01*
X159029000Y-30733000D02*
X159029000Y-28740000D01*
X159830000Y-26660000D02*
X159830000Y-24485000D01*
X158269000Y-26660000D02*
X158269000Y-25064000D01*
X158589000Y-26660000D02*
X158589000Y-24866000D01*
X159910000Y-30922000D02*
X159910000Y-28740000D01*
X157869000Y-30005000D02*
X157869000Y-28740000D01*
X157989000Y-30116000D02*
X157989000Y-28740000D01*
X157829000Y-29965000D02*
X157829000Y-25435000D01*
X159470000Y-30859000D02*
X159470000Y-28740000D01*
X156909000Y-28102000D02*
X156909000Y-27298000D01*
X157069000Y-28759000D02*
X157069000Y-26641000D01*
X157749000Y-29882000D02*
X157749000Y-25518000D01*
X158829000Y-30652000D02*
X158829000Y-28740000D01*
X159229000Y-30798000D02*
X159229000Y-28740000D01*
X158029000Y-26660000D02*
X158029000Y-25250000D01*
X159750000Y-30906000D02*
X159750000Y-28740000D01*
X159670000Y-26660000D02*
X159670000Y-24505000D01*
X158109000Y-30216000D02*
X158109000Y-28740000D01*
X157629000Y-29744000D02*
X157629000Y-25656000D01*
X158589000Y-30534000D02*
X158589000Y-28740000D01*
X157789000Y-29924000D02*
X157789000Y-25476000D01*
X159630000Y-30889000D02*
X159630000Y-28740000D01*
X158509000Y-30490000D02*
X158509000Y-28740000D01*
X159550000Y-30875000D02*
X159550000Y-28740000D01*
X159229000Y-26660000D02*
X159229000Y-24602000D01*
X159750000Y-26660000D02*
X159750000Y-24494000D01*
X158109000Y-26660000D02*
X158109000Y-25184000D01*
X158989000Y-26660000D02*
X158989000Y-24682000D01*
X159109000Y-30761000D02*
X159109000Y-28740000D01*
X157149000Y-28962000D02*
X157149000Y-26438000D01*
X159550000Y-26660000D02*
X159550000Y-24525000D01*
X163420000Y-27700000D02*
G75*
G03*
X163420000Y-27700000I-3270000J0D01*
G01*
%TO.C,J3*%
X96805000Y-28200000D02*
X96805000Y-30800000D01*
X94145000Y-30800000D02*
X96805000Y-30800000D01*
X94145000Y-28200000D02*
X94145000Y-30800000D01*
X95475000Y-25600000D02*
X96805000Y-25600000D01*
X94145000Y-28200000D02*
X96805000Y-28200000D01*
X96805000Y-25600000D02*
X96805000Y-26930000D01*
%TO.C,J7*%
X153745000Y-59020000D02*
X156405000Y-59020000D01*
X153745000Y-56420000D02*
X156405000Y-56420000D01*
X156405000Y-56420000D02*
X156405000Y-59020000D01*
X153745000Y-56420000D02*
X153745000Y-59020000D01*
X156405000Y-53820000D02*
X156405000Y-55150000D01*
X155075000Y-53820000D02*
X156405000Y-53820000D01*
%TO.C,U1*%
X93370000Y-33170000D02*
X83130000Y-33170000D01*
X83130000Y-33170000D02*
X83130000Y-28529000D01*
X86399000Y-33170000D02*
X86399000Y-31660000D01*
X90100000Y-33170000D02*
X90100000Y-31660000D01*
X93370000Y-33170000D02*
X93370000Y-28529000D01*
X93370000Y-28529000D02*
X83130000Y-28529000D01*
X93370000Y-31660000D02*
X83130000Y-31660000D01*
%TO.C,U3*%
X78145000Y-55004999D02*
X129005000Y-55005000D01*
X78145000Y-34225000D02*
X78145000Y-41151667D01*
X129005000Y-34225001D02*
X78145000Y-34225000D01*
X129005000Y-55005000D02*
X129005000Y-34225001D01*
X78505000Y-48078333D02*
X78145000Y-48078333D01*
X78145000Y-48078333D02*
X78145000Y-55004999D01*
X78145000Y-41151667D02*
X78505000Y-41151667D01*
X78505000Y-41151667D02*
X78505000Y-48078333D01*
%TO.C,J4*%
X89280000Y-25120000D02*
X86680000Y-25120000D01*
X89280000Y-25120000D02*
X89280000Y-27780000D01*
X91880000Y-26450000D02*
X91880000Y-27780000D01*
X86680000Y-25120000D02*
X86680000Y-27780000D01*
X91880000Y-27780000D02*
X90550000Y-27780000D01*
X89280000Y-27780000D02*
X86680000Y-27780000D01*
%TO.C,J5*%
X113290000Y-60930000D02*
X113290000Y-58270000D01*
X113290000Y-58270000D02*
X120970000Y-58270000D01*
X110690000Y-58270000D02*
X112020000Y-58270000D01*
X120970000Y-60930000D02*
X120970000Y-58270000D01*
X113290000Y-60930000D02*
X120970000Y-60930000D01*
X110690000Y-59600000D02*
X110690000Y-58270000D01*
%TO.C,Je1*%
X156905000Y-31720000D02*
X156905000Y-33050000D01*
X155575000Y-31720000D02*
X156905000Y-31720000D01*
X156905000Y-34320000D02*
X156905000Y-36920000D01*
X154245000Y-36920000D02*
X156905000Y-36920000D01*
X154245000Y-34320000D02*
X156905000Y-34320000D01*
X154245000Y-34320000D02*
X154245000Y-36920000D01*
%TO.C,U9*%
X130060000Y-29730000D02*
X152920000Y-29730000D01*
X152920000Y-29730000D02*
X152920000Y-39890000D01*
X152920000Y-39890000D02*
X130060000Y-39890000D01*
X130060000Y-39890000D02*
X130060000Y-29730000D01*
%TO.C,U7*%
X130120000Y-51120000D02*
X152980000Y-51120000D01*
X152980000Y-51120000D02*
X152980000Y-61280000D01*
X152980000Y-61280000D02*
X130120000Y-61280000D01*
X130120000Y-61280000D02*
X130120000Y-51120000D01*
%TO.C,R13*%
X154807776Y-28427500D02*
X155317224Y-28427500D01*
X154807776Y-29472500D02*
X155317224Y-29472500D01*
%TO.C,J8*%
X99230000Y-60980000D02*
X99230000Y-59650000D01*
X101830000Y-60980000D02*
X101830000Y-58320000D01*
X101830000Y-60980000D02*
X109510000Y-60980000D01*
X100560000Y-60980000D02*
X99230000Y-60980000D01*
X101830000Y-58320000D02*
X109510000Y-58320000D01*
X109510000Y-60980000D02*
X109510000Y-58320000D01*
%TO.C,J2*%
X168310000Y-44205000D02*
X167550000Y-44205000D01*
X166915000Y-41545000D02*
X157965000Y-41545000D01*
X157965000Y-41545000D02*
X157965000Y-42567470D01*
X166915000Y-41545000D02*
X166915000Y-42115000D01*
X157965000Y-43182530D02*
X157965000Y-44205000D01*
X166915000Y-43635000D02*
X166915000Y-44205000D01*
X166915000Y-44205000D02*
X157965000Y-44205000D01*
X168310000Y-42875000D02*
X168310000Y-44205000D01*
%TO.C,J10*%
X83630000Y-57600000D02*
X83630000Y-56270000D01*
X86230000Y-58930000D02*
X86230000Y-56270000D01*
X86230000Y-58930000D02*
X93910000Y-58930000D01*
X83630000Y-56270000D02*
X84960000Y-56270000D01*
X86230000Y-56270000D02*
X93910000Y-56270000D01*
X93910000Y-58930000D02*
X93910000Y-56270000D01*
%TO.C,J6*%
X108490000Y-30830000D02*
X108490000Y-28170000D01*
X108490000Y-30830000D02*
X118710000Y-30830000D01*
X105890000Y-29500000D02*
X105890000Y-28170000D01*
X105890000Y-28170000D02*
X107220000Y-28170000D01*
X118710000Y-30830000D02*
X118710000Y-28170000D01*
X108490000Y-28170000D02*
X118710000Y-28170000D01*
%TD*%
M02*
